<svg xmlns="http://www.w3.org/2000/svg" viewBox="0 0 100 100" fill="none">
  <rect width="100" height="100" fill="#f3f4f6"/>
  <path d="M50 30c-5.5 0-10 4.5-10 10s4.5 10 10 10 10-4.5 10-10-4.5-10-10-10zm0 35c-11.046 0-20 8.954-20 20v5h40v-5c0-11.046-8.954-20-20-20z" fill="#9ca3af"/>
  <circle cx="30" cy="25" r="8" fill="#d1d5db"/>
  <circle cx="70" cy="25" r="8" fill="#d1d5db"/>
  <path d="M30 35c-8.284 0-15 6.716-15 15v5h30v-5c0-8.284-6.716-15-15-15z" fill="#d1d5db"/>
  <path d="M70 35c-8.284 0-15 6.716-15 15v5h30v-5c0-8.284-6.716-15-15-15z" fill="#d1d5db"/>
</svg>